<?xml version="1.0" encoding="UTF-8"?>
<svg id="Layer_2" data-name="Layer 2" xmlns="http://www.w3.org/2000/svg" viewBox="0 0 48 52">
  <defs>
    <style>
      .cls-1 {
        stroke-linecap: round;
      }

      .cls-1, .cls-2 {
        fill: none;
        stroke: #37464c;
        stroke-linejoin: round;
        stroke-width: 2px;
      }
    </style>
  </defs>
  <g id="Icons">
    <g>
      <path class="cls-2" d="m24,7c0-3.31-2.69-6-6-6-1.79,0-3.39.79-4.49,2.03-.17-.01-.34-.03-.51-.03-3.09,0-5.63,2.33-5.96,5.33-2.35.81-4.04,3.04-4.04,5.67,0,1.07.28,2.07.78,2.95-1.67,1.07-2.78,2.93-2.78,5.05,0,1.54.58,2.94,1.54,4-.95,1.06-1.54,2.46-1.54,4,0,1.97.95,3.71,2.42,4.81-.27.68-.42,1.42-.42,2.19,0,2.62,1.68,4.84,4.02,5.66,0,.11-.02.23-.02.34,0,3.31,2.69,6,6,6,.17,0,.34-.01.51-.03,1.1,1.24,2.7,2.03,4.49,2.03,3.31,0,6-2.69,6-6"/>
      <path class="cls-1" d="m13.51,48.97c-1.17-1.17-1.64-2.58-1.51-3.99"/>
      <path class="cls-1" d="m11,12c3.31,0,6,2.69,6,6"/>
      <path class="cls-1" d="m12,39c3.31,0,6,2.69,6,6"/>
      <path class="cls-1" d="m24,21c0,3.31-2.69,6-6,6"/>
      <path class="cls-1" d="m8.76,24.49c-2.34-2.34-2.34-6.14,0-8.49"/>
      <path class="cls-1" d="m13.56,31.02c-3.11.23-5.56,2.81-5.56,5.98"/>
      <path class="cls-1" d="m20,7c-3.25,0-5.89,2.59-5.99,5.81"/>
      <path class="cls-2" d="m24,7c0-3.31,2.69-6,6-6,1.79,0,3.39.79,4.49,2.03.17-.01.34-.03.51-.03,3.09,0,5.63,2.33,5.96,5.33,2.35.81,4.04,3.04,4.04,5.67,0,1.07-.28,2.07-.78,2.95,1.67,1.07,2.78,2.93,2.78,5.05,0,1.54-.58,2.94-1.54,4,.95,1.06,1.54,2.46,1.54,4,0,1.97-.95,3.71-2.42,4.81.27.68.42,1.42.42,2.19,0,2.62-1.68,4.84-4.02,5.66,0,.11.02.23.02.34,0,3.31-2.69,6-6,6-.17,0-.34-.01-.51-.03-1.1,1.24-2.7,2.03-4.49,2.03-3.31,0-6-2.69-6-6V7Z"/>
      <path class="cls-1" d="m34.49,48.97c1.17-1.17,1.64-2.58,1.51-3.99"/>
      <path class="cls-1" d="m36,39c-3.31,0-6,2.69-6,6"/>
      <path class="cls-1" d="m24,21c0,3.31,2.69,6,6,6"/>
      <path class="cls-1" d="m39.24,24.49c2.34-2.34,2.34-6.14,0-8.49"/>
      <path class="cls-1" d="m30,33c3.31,0,6-2.69,6-6"/>
      <path class="cls-1" d="m34.44,31.02c3.11.23,5.56,2.81,5.56,5.98"/>
      <path class="cls-1" d="m28,7c3.25,0,5.89,2.59,5.99,5.81"/>
      <path class="cls-1" d="m14,23s-2,1-2,4c0,3.31,2.69,6,6,6"/>
      <path class="cls-1" d="m33,22s-2-1-2-4c0-3.31,2.69-6,6-6"/>
    </g>
  </g>
</svg>