<?xml version="1.0" encoding="UTF-8"?>
<svg id="Layer_2" data-name="Layer 2" xmlns="http://www.w3.org/2000/svg" viewBox="0 0 48 48">
  <defs>
    <style>
      .cls-1 {
        stroke-linecap: round;
      }

      .cls-1, .cls-2 {
        fill: none;
        stroke: #37464c;
        stroke-linejoin: round;
        stroke-width: 2px;
      }
    </style>
  </defs>
  <g id="Icons">
    <g>
      <polyline class="cls-1" points="31 1 31 11 41 11"/>
      <polyline class="cls-1" points="7 39 7 47 41 47 41 11 31 1 7 1 7 13"/>
      <polyline class="cls-1" points="45 47 47 47 47 11 37 1"/>
      <circle class="cls-2" cx="12" cy="26" r="4"/>
      <line class="cls-1" x1="24" y1="17" x2="35" y2="17"/>
      <line class="cls-1" x1="26" y1="23" x2="35" y2="23"/>
      <line class="cls-1" x1="26" y1="29" x2="35" y2="29"/>
      <line class="cls-1" x1="24" y1="35" x2="35" y2="35"/>
      <path class="cls-2" d="m22.89,27.59c.15-1.05.15-2.12,0-3.18l-2.26-.32c-.22-.99-.61-1.95-1.17-2.84l1.37-1.83c-.31-.42-.66-.82-1.04-1.2s-.78-.73-1.2-1.04l-1.83,1.37c-.88-.56-1.84-.95-2.84-1.17l-.32-2.26c-1.05-.15-2.12-.15-3.18,0l-.32,2.26c-.99.22-1.96.61-2.83,1.17l-1.83-1.37c-.42.31-.82.66-1.2,1.04-.38.38-.73.78-1.04,1.2l1.37,1.83c-.56.88-.95,1.85-1.17,2.83l-2.26.32c-.15,1.05-.15,2.12,0,3.18l2.26.32c.22.99.61,1.95,1.17,2.84l-1.37,1.83c.31.42.66.82,1.04,1.2.38.38.78.73,1.2,1.04l1.83-1.37c.88.56,1.84.95,2.84,1.17l.32,2.26c1.05.15,2.12.15,3.18,0l.32-2.26c.99-.22,1.96-.61,2.83-1.17l1.83,1.37c.42-.31.82-.66,1.2-1.04.38-.38.73-.78,1.04-1.2l-1.37-1.83c.56-.88.95-1.85,1.17-2.83l2.26-.32Z"/>
    </g>
  </g>
</svg>