<?xml version="1.0" encoding="UTF-8"?>
<svg id="Layer_2" data-name="Layer 2" xmlns="http://www.w3.org/2000/svg" viewBox="0 0 44 52">
  <defs>
    <style>
      .cls-1 {
        stroke-linecap: round;
      }

      .cls-1, .cls-2 {
        fill: none;
        stroke: #37464c;
        stroke-linejoin: round;
        stroke-width: 2px;
      }
    </style>
  </defs>
  <g id="Icons">
    <g>
      <circle class="cls-1" cx="9" cy="45" r="2"/>
      <path class="cls-2" d="m37,39H7.25c-3.29,0-6.15,2.53-6.25,5.82-.1,3.4,2.62,6.18,6,6.18h30c3.31,0,6-2.69,6-6h0c0-3.31-2.69-6-6-6Z"/>
      <circle class="cls-2" cx="28" cy="12" r="4"/>
      <path class="cls-2" d="m38.89,13.59c.15-1.05.15-2.12,0-3.18l-2.26-.32c-.22-.99-.61-1.95-1.17-2.84l1.37-1.83c-.31-.42-.66-.82-1.04-1.2s-.78-.73-1.2-1.04l-1.83,1.37c-.88-.56-1.84-.95-2.84-1.17l-.32-2.26c-1.05-.15-2.12-.15-3.18,0l-.32,2.26c-.99.22-1.96.61-2.83,1.17l-1.83-1.37c-.42.31-.82.66-1.2,1.04-.38.38-.73.78-1.04,1.2l1.37,1.83c-.56.88-.95,1.85-1.17,2.83l-2.26.32c-.15,1.05-.15,2.12,0,3.18l2.26.32c.22.99.61,1.95,1.17,2.84l-1.37,1.83c.31.42.66.82,1.04,1.2.38.38.78.73,1.2,1.04l1.83-1.37c.88.56,1.84.95,2.84,1.17l.32,2.26c1.05.15,2.12.15,3.18,0l.32-2.26c.99-.22,1.96-.61,2.83-1.17l1.83,1.37c.42-.31.82-.66,1.2-1.04.38-.38.73-.78,1.04-1.2l-1.37-1.83c.56-.88.95-1.85,1.17-2.83l2.26-.32Z"/>
      <line class="cls-1" x1="27" y1="43" x2="27" y2="47"/>
      <line class="cls-1" x1="31" y1="43" x2="31" y2="47"/>
      <line class="cls-1" x1="35" y1="43" x2="35" y2="47"/>
      <circle class="cls-1" cx="9" cy="33" r="2"/>
      <path class="cls-2" d="m37,27H7.25c-3.29,0-6.15,2.53-6.25,5.82-.1,3.4,2.62,6.18,6,6.18h30c3.31,0,6-2.69,6-6h0c0-3.31-2.69-6-6-6Z"/>
      <line class="cls-1" x1="27" y1="31" x2="27" y2="35"/>
      <line class="cls-1" x1="31" y1="31" x2="31" y2="35"/>
      <line class="cls-1" x1="35" y1="31" x2="35" y2="35"/>
      <circle class="cls-1" cx="9" cy="21" r="2"/>
      <path class="cls-2" d="m19.7,15H7.25c-3.29,0-6.15,2.53-6.25,5.82-.1,3.4,2.62,6.18,6,6.18h30c3.31,0,6-2.69,6-6s-2.69-6-6-6h-.7"/>
    </g>
  </g>
</svg>