<svg width="169.969" height="84.391" xmlns="http://www.w3.org/2000/svg">

 <g>
  <title>background</title>
  <rect fill="none" id="canvas_background" height="86.391" width="171.969" y="-1" x="-1"/>
 </g>
 <g>
  <title>Layer 1</title>
  <g id="svg_16">
   <path stroke="null" id="svg_10" d="m107.431467,9.345497c-9.545438,0 -17.393908,2.54988 -17.499969,6.556835c0,0.121423 0,24.770262 0,31.448519c0,0.971383 0,1.578497 0,1.578497c0,3.642686 8.378773,6.192566 17.499969,6.192566s17.49997,-2.428457 17.49997,-6.192566s0,-32.905593 0,-33.027016c0.10606,-3.885531 -7.954531,-6.556835 -17.49997,-6.556835zm0,11.778018c-9.757559,0 -16.333304,-2.792726 -16.333304,-5.342606s6.575746,-5.342605 16.333304,-5.342605s16.333305,2.792725 16.333305,5.342605c0,2.671303 -6.575746,5.342606 -16.333305,5.342606zm16.333305,27.684411c-0.530302,2.54988 -6.999988,4.978338 -16.333305,4.978338s-15.803003,-2.54988 -16.333304,-4.978338l0,0l0,-9.835251c0.742423,1.092805 2.333329,2.064188 4.454537,2.792725c3.075753,1.092806 7.212109,1.69992 11.878767,1.69992c7.848471,0 14.318157,-1.821343 16.333305,-4.371223l0,9.713828zm0,-11.170902c-0.636362,2.549879 -6.999988,4.978337 -16.333305,4.978337c-4.666658,0 -8.590894,-0.607114 -11.454525,-1.578497s-4.666659,-2.185611 -4.878779,-3.399839l0,-8.985292c1.590906,2.185611 6.151504,3.764109 12.090888,4.371223c1.378786,0.121423 2.757571,0.121423 4.242416,0.121423c7.848471,0 14.318157,-1.821343 16.333305,-4.371223l0,8.863869zm0,-10.442366c-0.636362,2.549879 -6.999988,4.978337 -16.333305,4.978337c-1.166665,0 -2.227269,0 -3.287873,-0.121423c-7.53029,-0.485691 -12.51513,-2.792726 -13.045431,-4.856914l0,-9.470983c1.909087,2.307034 8.484834,4.492645 16.333304,4.492645c4.136357,0 7.954532,-0.485691 10.818164,-1.335651c2.54545,-0.728537 4.560598,-1.821343 5.515141,-3.035571l0,9.34956z"/>
   <path stroke="null" id="svg_11" d="m65.931363,23.345497c-11.454472,0 -20.872593,2.879841 -20.999865,7.405306c0,0.137135 0,27.975596 0,35.518037c0,1.097082 0,1.782758 0,1.782758c0,4.114059 10.054481,6.9939 20.999865,6.9939s20.999866,-2.742706 20.999866,-6.9939s0,-37.16366 0,-37.300795c0.127272,-4.388329 -9.545393,-7.405306 -20.999866,-7.405306zm0,13.302123c-11.709016,0 -19.599874,-3.154112 -19.599874,-6.033953s7.890858,-6.033952 19.599874,-6.033952s19.599875,3.154111 19.599875,6.033952c0,3.016976 -7.890858,6.033953 -19.599875,6.033953zm19.599875,31.266843c-0.636359,2.879841 -8.399946,5.622547 -19.599875,5.622547s-18.963515,-2.879841 -19.599874,-5.622547l0,0l0,-11.107957c0.890903,1.234217 2.799982,2.331299 5.34542,3.154111c3.690886,1.234218 8.65449,1.919894 14.254454,1.919894c9.418122,0 17.181709,-2.057029 19.599875,-4.93687l0,10.970822zm0,-12.616445c-0.763631,2.87984 -8.399946,5.622546 -19.599875,5.622546c-5.599964,0 -10.309025,-0.685676 -13.745366,-1.782759s-5.599965,-2.468435 -5.854508,-3.839787l0,-10.148011c1.909078,2.468435 7.381771,4.251194 14.508998,4.93687c1.654535,0.137135 3.30907,0.137135 5.090876,0.137135c9.418122,0 17.181709,-2.057029 19.599875,-4.93687l0,10.010876zm0,-11.793634c-0.763631,2.87984 -8.399946,5.622546 -19.599875,5.622546c-1.399991,0 -2.67271,0 -3.945429,-0.137135c-9.036306,-0.548541 -15.018086,-3.154112 -15.654445,-5.485411l0,-10.696552c2.290894,2.60557 10.181753,5.074005 19.599874,5.074005c4.963605,0 9.545394,-0.548541 12.981736,-1.508488c3.054526,-0.822812 5.472692,-2.057029 6.618139,-3.428382l0,10.559417z"/>
   <path stroke="null" id="svg_12" d="m65.931363,23.345497c-11.454472,0 -20.872593,2.879841 -20.999865,7.405306c0,0.137135 0,27.975596 0,35.518037c0,1.097082 0,1.782758 0,1.782758c0,4.114059 10.054481,6.9939 20.999865,6.9939s20.999866,-2.742706 20.999866,-6.9939s0,-37.16366 0,-37.300795c0.127272,-4.388329 -9.545393,-7.405306 -20.999866,-7.405306zm0,13.302123c-11.709016,0 -19.599874,-3.154112 -19.599874,-6.033953s7.890858,-6.033952 19.599874,-6.033952s19.599875,3.154111 19.599875,6.033952c0,3.016976 -7.890858,6.033953 -19.599875,6.033953zm19.599875,31.266843c-0.636359,2.879841 -8.399946,5.622547 -19.599875,5.622547s-18.963515,-2.879841 -19.599874,-5.622547l0,0l0,-11.107957c0.890903,1.234217 2.799982,2.331299 5.34542,3.154111c3.690886,1.234218 8.65449,1.919894 14.254454,1.919894c9.418122,0 17.181709,-2.057029 19.599875,-4.93687l0,10.970822zm0,-12.616445c-0.763631,2.87984 -8.399946,5.622546 -19.599875,5.622546c-5.599964,0 -10.309025,-0.685676 -13.745366,-1.782759s-5.599965,-2.468435 -5.854508,-3.839787l0,-10.148011c1.909078,2.468435 7.381771,4.251194 14.508998,4.93687c1.654535,0.137135 3.30907,0.137135 5.090876,0.137135c9.418122,0 17.181709,-2.057029 19.599875,-4.93687l0,10.010876zm0,-11.793634c-0.763631,2.87984 -8.399946,5.622546 -19.599875,5.622546c-1.399991,0 -2.67271,0 -3.945429,-0.137135c-9.036306,-0.548541 -15.018086,-3.154112 -15.654445,-5.485411l0,-10.696552c2.290894,2.60557 10.181753,5.074005 19.599874,5.074005c4.963605,0 9.545394,-0.548541 12.981736,-1.508488c3.054526,-0.822812 5.472692,-2.057029 6.618139,-3.428382l0,10.559417z"/>
   <path stroke="null" id="svg_13" d="m65.931363,23.345497c-11.454472,0 -20.872593,2.879841 -20.999865,7.405306c0,0.137135 0,27.975596 0,35.518037c0,1.097082 0,1.782758 0,1.782758c0,4.114059 10.054481,6.9939 20.999865,6.9939s20.999866,-2.742706 20.999866,-6.9939s0,-37.16366 0,-37.300795c0.127272,-4.388329 -9.545393,-7.405306 -20.999866,-7.405306zm0,13.302123c-11.709016,0 -19.599874,-3.154112 -19.599874,-6.033953s7.890858,-6.033952 19.599874,-6.033952s19.599875,3.154111 19.599875,6.033952c0,3.016976 -7.890858,6.033953 -19.599875,6.033953zm19.599875,31.266843c-0.636359,2.879841 -8.399946,5.622547 -19.599875,5.622547s-18.963515,-2.879841 -19.599874,-5.622547l0,0l0,-11.107957c0.890903,1.234217 2.799982,2.331299 5.34542,3.154111c3.690886,1.234218 8.65449,1.919894 14.254454,1.919894c9.418122,0 17.181709,-2.057029 19.599875,-4.93687l0,10.970822zm0,-12.616445c-0.763631,2.87984 -8.399946,5.622546 -19.599875,5.622546c-5.599964,0 -10.309025,-0.685676 -13.745366,-1.782759s-5.599965,-2.468435 -5.854508,-3.839787l0,-10.148011c1.909078,2.468435 7.381771,4.251194 14.508998,4.93687c1.654535,0.137135 3.30907,0.137135 5.090876,0.137135c9.418122,0 17.181709,-2.057029 19.599875,-4.93687l0,10.010876zm0,-11.793634c-0.763631,2.87984 -8.399946,5.622546 -19.599875,5.622546c-1.399991,0 -2.67271,0 -3.945429,-0.137135c-9.036306,-0.548541 -15.018086,-3.154112 -15.654445,-5.485411l0,-10.696552c2.290894,2.60557 10.181753,5.074005 19.599874,5.074005c4.963605,0 9.545394,-0.548541 12.981736,-1.508488c3.054526,-0.822812 5.472692,-2.057029 6.618139,-3.428382l0,10.559417z"/>
   <path stroke="null" id="svg_14" d="m65.931363,23.345497c-11.454472,0 -20.872593,2.879841 -20.999865,7.405306c0,0.137135 0,27.975596 0,35.518037c0,1.097082 0,1.782758 0,1.782758c0,4.114059 10.054481,6.9939 20.999865,6.9939s20.999866,-2.742706 20.999866,-6.9939s0,-37.16366 0,-37.300795c0.127272,-4.388329 -9.545393,-7.405306 -20.999866,-7.405306zm0,13.302123c-11.709016,0 -19.599874,-3.154112 -19.599874,-6.033953s7.890858,-6.033952 19.599874,-6.033952s19.599875,3.154111 19.599875,6.033952c0,3.016976 -7.890858,6.033953 -19.599875,6.033953zm19.599875,31.266843c-0.636359,2.879841 -8.399946,5.622547 -19.599875,5.622547s-18.963515,-2.879841 -19.599874,-5.622547l0,0l0,-11.107957c0.890903,1.234217 2.799982,2.331299 5.34542,3.154111c3.690886,1.234218 8.65449,1.919894 14.254454,1.919894c9.418122,0 17.181709,-2.057029 19.599875,-4.93687l0,10.970822zm0,-12.616445c-0.763631,2.87984 -8.399946,5.622546 -19.599875,5.622546c-5.599964,0 -10.309025,-0.685676 -13.745366,-1.782759s-5.599965,-2.468435 -5.854508,-3.839787l0,-10.148011c1.909078,2.468435 7.381771,4.251194 14.508998,4.93687c1.654535,0.137135 3.30907,0.137135 5.090876,0.137135c9.418122,0 17.181709,-2.057029 19.599875,-4.93687l0,10.010876zm0,-11.793634c-0.763631,2.87984 -8.399946,5.622546 -19.599875,5.622546c-1.399991,0 -2.67271,0 -3.945429,-0.137135c-9.036306,-0.548541 -15.018086,-3.154112 -15.654445,-5.485411l0,-10.696552c2.290894,2.60557 10.181753,5.074005 19.599874,5.074005c4.963605,0 9.545394,-0.548541 12.981736,-1.508488c3.054526,-0.822812 5.472692,-2.057029 6.618139,-3.428382l0,10.559417z"/>
   <path stroke="null" id="svg_15" d="m65.931363,23.345497c-11.454472,0 -20.872593,2.879841 -20.999865,7.405306c0,0.137135 0,27.975596 0,35.518037c0,1.097082 0,1.782758 0,1.782758c0,4.114059 10.054481,6.9939 20.999865,6.9939s20.999866,-2.742706 20.999866,-6.9939s0,-37.16366 0,-37.300795c0.127272,-4.388329 -9.545393,-7.405306 -20.999866,-7.405306zm0,13.302123c-11.709016,0 -19.599874,-3.154112 -19.599874,-6.033953s7.890858,-6.033952 19.599874,-6.033952s19.599875,3.154111 19.599875,6.033952c0,3.016976 -7.890858,6.033953 -19.599875,6.033953zm19.599875,31.266843c-0.636359,2.879841 -8.399946,5.622547 -19.599875,5.622547s-18.963515,-2.879841 -19.599874,-5.622547l0,0l0,-11.107957c0.890903,1.234217 2.799982,2.331299 5.34542,3.154111c3.690886,1.234218 8.65449,1.919894 14.254454,1.919894c9.418122,0 17.181709,-2.057029 19.599875,-4.93687l0,10.970822zm0,-12.616445c-0.763631,2.87984 -8.399946,5.622546 -19.599875,5.622546c-5.599964,0 -10.309025,-0.685676 -13.745366,-1.782759s-5.599965,-2.468435 -5.854508,-3.839787l0,-10.148011c1.909078,2.468435 7.381771,4.251194 14.508998,4.93687c1.654535,0.137135 3.30907,0.137135 5.090876,0.137135c9.418122,0 17.181709,-2.057029 19.599875,-4.93687l0,10.010876zm0,-11.793634c-0.763631,2.87984 -8.399946,5.622546 -19.599875,5.622546c-1.399991,0 -2.67271,0 -3.945429,-0.137135c-9.036306,-0.548541 -15.018086,-3.154112 -15.654445,-5.485411l0,-10.696552c2.290894,2.60557 10.181753,5.074005 19.599874,5.074005c4.963605,0 9.545394,-0.548541 12.981736,-1.508488c3.054526,-0.822812 5.472692,-2.057029 6.618139,-3.428382l0,10.559417z"/>
  </g>
 </g>
</svg>